<?xml version="1.0" standalone="no"?>
<!DOCTYPE svg PUBLIC "-//W3C//DTD SVG 20010904//EN"
 "http://www.w3.org/TR/2001/REC-SVG-20010904/DTD/svg10.dtd">
<svg version="1.0" xmlns="http://www.w3.org/2000/svg"
 width="700.000000pt" height="700.000000pt" viewBox="0 0 700.000000 700.000000"
 preserveAspectRatio="xMidYMid meet">
<metadata>
Created by potrace 1.11, written by Peter Selinger 2001-2013
</metadata>
<g transform="translate(0.000000,700.000000) scale(0.100000,-0.100000)"
fill="#000000" stroke="none">
<path d="M2665 6979 c-362 -91 -651 -315 -822 -639 -77 -146 -124 -311 -138
-485 -2 -16 -3 -166 -4 -332 l-1 -301 -431 0 c-237 -1 -433 -3 -436 -6 -3 -3
-7 -18 -9 -33 -14 -130 -20 -191 -29 -288 -4 -38 -8 -81 -10 -95 -2 -14 -7
-56 -10 -95 -4 -38 -8 -77 -10 -86 -2 -9 -6 -54 -10 -99 -4 -45 -8 -91 -10
-102 -3 -12 -7 -53 -11 -92 -3 -39 -7 -82 -9 -96 -1 -14 -6 -59 -9 -100 -4
-41 -9 -86 -11 -100 -2 -14 -6 -54 -10 -90 -4 -36 -9 -83 -11 -105 -3 -22 -7
-65 -9 -95 -3 -30 -7 -71 -10 -90 -2 -19 -7 -66 -11 -105 -3 -38 -7 -81 -9
-95 -2 -14 -7 -52 -10 -85 -3 -33 -8 -76 -10 -95 -2 -19 -7 -64 -10 -100 -3
-36 -8 -81 -10 -100 -5 -44 -13 -119 -20 -190 -3 -30 -8 -73 -10 -95 -2 -22
-7 -67 -10 -100 -4 -33 -8 -73 -10 -90 -2 -16 -7 -59 -10 -95 -3 -36 -7 -78
-10 -95 -2 -16 -6 -64 -10 -105 -3 -41 -8 -82 -10 -90 -2 -8 -7 -53 -10 -100
-4 -47 -8 -87 -10 -90 -2 -3 -6 -45 -9 -95 -4 -49 -9 -97 -11 -105 -2 -8 -6
-51 -10 -95 -3 -44 -8 -87 -10 -95 -2 -8 -7 -49 -10 -90 -3 -41 -8 -86 -9
-100 -2 -14 -7 -56 -10 -95 -4 -38 -9 -86 -11 -105 -4 -37 -13 -126 -20 -200
-3 -25 -7 -61 -10 -80 -4 -30 -7 -63 -20 -200 -7 -73 -16 -159 -20 -190 -2
-19 -7 -60 -10 -90 -3 -30 -7 -75 -10 -100 -2 -25 -7 -74 -11 -110 -3 -36 -7
-72 -9 -80 -1 -8 -6 -51 -10 -95 l-7 -81 3180 -2 3180 -2 -4 37 c-4 49 -13
129 -18 173 -7 55 -19 162 -21 195 -8 92 -16 172 -20 190 -2 11 -7 56 -11 100
-3 44 -8 88 -10 98 -2 10 -6 48 -9 85 -4 37 -8 78 -10 92 -2 14 -7 57 -10 95
-4 39 -8 81 -10 95 -2 14 -7 57 -10 95 -4 39 -8 77 -10 85 -2 8 -7 49 -10 90
-4 41 -8 86 -10 100 -3 14 -7 57 -10 95 -3 39 -7 81 -10 95 -2 14 -7 54 -10
90 -3 36 -8 82 -10 103 -3 20 -7 54 -10 75 -2 20 -7 66 -10 102 -3 36 -8 81
-10 100 -2 19 -7 60 -10 90 -3 30 -8 71 -10 90 -2 19 -7 67 -10 105 -3 39 -8
77 -10 85 -2 8 -7 49 -10 90 -4 41 -8 86 -10 100 -1 14 -6 54 -10 90 -3 36 -8
76 -10 90 -2 14 -7 61 -11 105 -3 44 -8 87 -9 95 -2 8 -6 44 -10 80 -3 36 -8
81 -10 100 -7 64 -18 175 -20 195 -2 23 9 23 -637 24 l-386 1 -6 48 c-4 26 -9
72 -11 102 -3 30 -7 71 -10 90 -2 19 -7 64 -10 100 -6 69 -14 138 -20 180 -2
14 -7 61 -11 105 -3 44 -8 89 -10 99 -2 11 -6 57 -9 102 l-5 83 77 -38 c73
-36 181 -75 242 -86 105 -20 282 -27 336 -14 17 4 48 9 70 12 58 6 209 59 290
102 149 78 310 228 394 368 61 101 122 258 136 352 39 258 7 463 -106 675
-183 342 -528 546 -919 544 -370 -2 -723 -216 -897 -544 -36 -68 -78 -173 -89
-225 -3 -11 -10 -42 -15 -70 -6 -27 -13 -104 -15 -170 -2 -66 -3 -123 -4 -126
0 -3 -102 -5 -227 -5 l-228 1 -1 280 c-1 304 -8 415 -30 515 -8 36 -17 75 -19
86 -23 100 -131 317 -202 404 -206 254 -387 374 -698 467 -36 11 -115 16 -280
19 -205 3 -239 1 -310 -17z m479 -195 c365 -69 673 -337 790 -686 49 -145 54
-199 55 -550 l1 -327 -1041 0 -1041 0 5 337 c2 185 8 353 11 372 28 138 75
265 139 370 22 36 42 67 46 70 3 3 19 22 34 43 138 185 410 342 657 379 66 10
272 5 344 -8z"/>
</g>
</svg>
